# xmcd CD database file
#
# Track frame offsets:
#	150
#	16767
#	29307
#	44175
#	65310
#	85290
#	94637
#	111432
#	122665
#	132782
#	146860
#	160695
#	183195
#	196887
#	211742
#
# Disc length: 3083 seconds
#
# Revision: 4
# Processed by: cddbd v1.5PL3 Copyright (c) Steve Scherf et al.
# Submitted via: CDex 1.51
#
DISCID=ca0c090f
DTITLE=Jason Eklund - Jason Eklund
DYEAR=1993
DGENRE=Blues
TTITLE0=Lonesome Out There
TTITLE1=Time Keeps Marchin' On
TTITLE2=Walk One More Mile
TTITLE3=Loves in Oklahoma
TTITLE4=On My Own
TTITLE5=On the Pulse
TTITLE6=I am the Road
TTITLE7=Borneo
TTITLE8=Roll Ya for that Rock
TTITLE9=When the Night is Long
TTITLE10=Double Standard Blues
TTITLE11=Sand in My Shoes
TTITLE12=Scrubbin' the Floor
TTITLE13=Vacation from Myself
TTITLE14=So Long
EXTD=YEAR: 1993
EXTT0=
EXTT1=
EXTT2=
EXTT3=
EXTT4=
EXTT5=
EXTT6=
EXTT7=
EXTT8=
EXTT9=
EXTT10=
EXTT11=
EXTT12=
EXTT13=
EXTT14=
PLAYORDER=
